<svg width="14" height="12" viewBox="0 0 14 12" fill="none" xmlns="http://www.w3.org/2000/svg">
<path fill-rule="evenodd" clip-rule="evenodd" d="M3.65187 11.6667H1.30671C0.750668 11.6667 0.472628 11.6667 0.306148 11.5569C0.126188 11.4384 0.012668 11.2394 0.000628004 11.0216C-0.010532 10.8199 0.127188 10.5741 0.402588 10.0825L0.402708 10.0823L5.53735 0.916555C5.81679 0.417675 5.95655 0.168195 6.13435 0.0753551C6.32643 -0.0249649 6.55419 -0.0251247 6.74639 0.0749152C6.92435 0.167475 7.06443 0.416755 7.34459 0.915195L8.52883 3.022L8.52887 3.02203C8.73259 3.38447 8.83447 3.56571 8.87927 3.75691C8.92803 3.96507 8.92811 4.18196 8.87955 4.39012C8.83491 4.58136 8.73319 4.76271 8.52971 5.12539L5.45927 10.5986C5.25287 10.9665 5.14967 11.1505 5.00823 11.288C4.85431 11.4377 4.66767 11.548 4.46367 11.6099C4.27619 11.6667 4.06811 11.6667 3.65187 11.6667ZM12.0188 11.6667H9.29983C8.73875 11.6667 8.45819 11.6667 8.29115 11.556C8.11067 11.4364 7.99751 11.236 7.98683 11.017C7.97695 10.8144 8.11815 10.5676 8.40051 10.074L9.75775 7.70132C10.0366 7.21396 10.176 6.97024 10.3525 6.87896C10.5433 6.78032 10.7688 6.78015 10.9597 6.87851C11.1364 6.96951 11.2761 7.21299 11.5555 7.69987L11.5556 7.70004L12.9173 10.0727C13.2008 10.5666 13.3425 10.8136 13.3329 11.0163C13.3224 11.2354 13.2093 11.4361 13.0287 11.5559C12.8617 11.6667 12.5807 11.6667 12.0188 11.6667Z" fill="white"/>
</svg>
