<svg width="303" height="269" viewBox="0 0 303 269" fill="none" xmlns="http://www.w3.org/2000/svg">
<g clip-path="url(#clip0_4_13)">
<path d="M67.3 146L151.3 194.5L235.3 146V49L151.3 0.5L67.3 49V146Z" fill="#469EA2"/>
<path d="M142.7 12.1L81.7 47.3C81.8 48.3977 81.8 49.5023 81.7 50.6L142.6 85.8C147.74 81.9994 154.76 81.9994 159.9 85.8L220.8 50.6C220.7 49.5023 220.7 48.3977 220.8 47.3L160 12.1C154.86 15.9006 147.84 15.9006 142.7 12.1V12.1ZM226.7 60.3L165.7 95.9C166.378 102.234 162.908 108.285 157.1 110.9L157.2 180.9C158.186 181.335 159.125 181.871 160 182.5L220.9 147.3C220.222 140.966 223.692 134.915 229.5 132.3V61.9C228.525 61.4429 227.589 60.9078 226.7 60.3V60.3ZM75.9 60.7C75.0245 61.3288 74.0862 61.865 73.1 62.3V132.7C78.9882 135.226 82.4951 141.342 81.7 147.7L142.6 182.9C143.475 182.271 144.414 181.735 145.4 181.3V110.9C139.512 108.374 136.005 102.258 136.8 95.9L75.9 60.7Z" fill="#6ACAD1"/>
<path d="M151.3 11L226.4 54.4V141.1L151.3 184.5L76.2 141.1V54.3L151.3 11ZM151.3 0.700012L67.3 49.2V146.2L151.3 194.7L235.3 146.2V49.2L151.3 0.700012Z" fill="#469EA2"/>
<path d="M151.9 114H150.7C146.533 114.011 142.533 112.36 139.587 109.413C136.64 106.467 134.989 102.467 135 98.3V97.1C134.989 92.9329 136.64 88.9333 139.587 85.9867C142.533 83.04 146.533 81.3894 150.7 81.4H151.9C156.067 81.3894 160.067 83.04 163.013 85.9867C165.96 88.9333 167.611 92.9329 167.6 97.1V98.3C167.611 102.467 165.96 106.467 163.013 109.413C160.067 112.36 156.067 114.011 151.9 114V114ZM151.9 178.5H150.7C145.02 178.483 139.776 181.545 137 186.5L151.3 194.7L165.6 186.5C162.823 181.545 157.58 178.483 151.9 178.5V178.5ZM235.4 130H234.8C230.633 129.989 226.633 131.64 223.687 134.587C220.74 137.533 219.089 141.533 219.1 145.7V146.9C219.086 149.565 219.776 152.187 221.1 154.5L235.4 146.2V130ZM221.1 41C219.787 43.3177 219.098 45.9363 219.1 48.6V49.8C219.089 53.9672 220.74 57.9667 223.687 60.9134C226.633 63.86 230.633 65.5107 234.8 65.5001H235.4V49.2L221.1 41ZM151.3 0.700012L137 8.90001C139.763 13.8815 145.004 16.9799 150.7 17.0001H151.9C157.58 17.0171 162.823 13.9553 165.6 9.00001L151.3 0.700012ZM81.6 40.9L67.3 49.2V65.5001H67.9C72.0671 65.5107 76.0667 63.86 79.0133 60.9134C81.96 57.9667 83.6106 53.9672 83.6 49.8V48.6C83.5661 45.9093 82.8798 43.2671 81.6 40.9ZM67.9 130H67.3V146.2L81.6 154.5C82.9127 152.182 83.6018 149.564 83.6 146.9V145.7C83.6106 141.533 81.96 137.533 79.0133 134.587C76.0667 131.64 72.0671 129.989 67.9 130V130Z" fill="#469EA2"/>
<path d="M151.3 195.2V98.1L67.3 49.6V146.7L151.3 195.2Z" fill="#083B54" fill-opacity="0.15"/>
<path d="M235.4 145.8V48.8L151.4 97.3V194.4L235.4 145.8Z" fill="#083B54" fill-opacity="0.05"/>
</g>
<path d="M21.2727 237.727V261H18.5455L5.86364 242.727H5.63636V261H2.81818V237.727H5.54545L18.2727 256.045H18.5V237.727H21.2727ZM33.6392 261.364C32.0634 261.364 30.6809 260.989 29.4915 260.239C28.3097 259.489 27.3854 258.439 26.7188 257.091C26.0597 255.742 25.7301 254.167 25.7301 252.364C25.7301 250.545 26.0597 248.958 26.7188 247.602C27.3854 246.246 28.3097 245.193 29.4915 244.443C30.6809 243.693 32.0634 243.318 33.6392 243.318C35.215 243.318 36.5938 243.693 37.7756 244.443C38.965 245.193 39.8892 246.246 40.5483 247.602C41.215 248.958 41.5483 250.545 41.5483 252.364C41.5483 254.167 41.215 255.742 40.5483 257.091C39.8892 258.439 38.965 259.489 37.7756 260.239C36.5938 260.989 35.215 261.364 33.6392 261.364ZM33.6392 258.955C34.8362 258.955 35.821 258.648 36.5938 258.034C37.3665 257.42 37.9384 256.614 38.3097 255.614C38.6809 254.614 38.8665 253.53 38.8665 252.364C38.8665 251.197 38.6809 250.11 38.3097 249.102C37.9384 248.095 37.3665 247.28 36.5938 246.659C35.821 246.038 34.8362 245.727 33.6392 245.727C32.4422 245.727 31.4574 246.038 30.6847 246.659C29.9119 247.28 29.34 248.095 28.9688 249.102C28.5975 250.11 28.4119 251.197 28.4119 252.364C28.4119 253.53 28.5975 254.614 28.9688 255.614C29.34 256.614 29.9119 257.42 30.6847 258.034C31.4574 258.648 32.4422 258.955 33.6392 258.955ZM57.8239 237.727V261H55.0057V237.727H57.8239ZM63.4744 261V237.727H71.3381C73.1638 237.727 74.6563 238.057 75.8153 238.716C76.982 239.367 77.8456 240.25 78.4062 241.364C78.9669 242.477 79.2472 243.72 79.2472 245.091C79.2472 246.462 78.9669 247.708 78.4062 248.83C77.8532 249.951 76.9972 250.845 75.8381 251.511C74.679 252.17 73.1941 252.5 71.3835 252.5H65.7472V250H71.2926C72.5426 250 73.5464 249.784 74.304 249.352C75.0616 248.92 75.6108 248.337 75.9517 247.602C76.3002 246.86 76.4744 246.023 76.4744 245.091C76.4744 244.159 76.3002 243.326 75.9517 242.591C75.6108 241.856 75.0578 241.28 74.2926 240.864C73.5275 240.439 72.5123 240.227 71.2472 240.227H66.2926V261H63.4744ZM83.7869 261V237.727H97.7415V240.227H86.6051V248.091H96.696V250.591H86.6051V261H83.7869ZM115.295 243.545C115.159 242.394 114.606 241.5 113.636 240.864C112.667 240.227 111.477 239.909 110.068 239.909C109.038 239.909 108.136 240.076 107.364 240.409C106.598 240.742 106 241.201 105.568 241.784C105.144 242.367 104.932 243.03 104.932 243.773C104.932 244.394 105.08 244.928 105.375 245.375C105.678 245.814 106.064 246.182 106.534 246.477C107.004 246.765 107.496 247.004 108.011 247.193C108.527 247.375 109 247.523 109.432 247.636L111.795 248.273C112.402 248.432 113.076 248.652 113.818 248.932C114.568 249.212 115.284 249.595 115.966 250.08C116.655 250.557 117.223 251.17 117.67 251.92C118.117 252.67 118.341 253.591 118.341 254.682C118.341 255.939 118.011 257.076 117.352 258.091C116.701 259.106 115.746 259.913 114.489 260.511C113.239 261.11 111.72 261.409 109.932 261.409C108.265 261.409 106.822 261.14 105.602 260.602C104.39 260.064 103.436 259.314 102.739 258.352C102.049 257.39 101.659 256.273 101.568 255H104.477C104.553 255.879 104.848 256.606 105.364 257.182C105.886 257.75 106.545 258.174 107.341 258.455C108.144 258.727 109.008 258.864 109.932 258.864C111.008 258.864 111.973 258.689 112.83 258.341C113.686 257.985 114.364 257.492 114.864 256.864C115.364 256.227 115.614 255.485 115.614 254.636C115.614 253.864 115.398 253.235 114.966 252.75C114.534 252.265 113.966 251.871 113.261 251.568C112.557 251.265 111.795 251 110.977 250.773L108.114 249.955C106.295 249.432 104.856 248.686 103.795 247.716C102.735 246.746 102.205 245.477 102.205 243.909C102.205 242.606 102.557 241.47 103.261 240.5C103.973 239.523 104.928 238.765 106.125 238.227C107.33 237.682 108.674 237.409 110.159 237.409C111.659 237.409 112.992 237.678 114.159 238.216C115.326 238.746 116.25 239.473 116.932 240.398C117.621 241.322 117.985 242.371 118.023 243.545H115.295ZM150.702 245H147.884C147.717 244.189 147.425 243.477 147.009 242.864C146.599 242.25 146.099 241.735 145.509 241.318C144.925 240.894 144.277 240.576 143.565 240.364C142.853 240.152 142.111 240.045 141.338 240.045C139.929 240.045 138.652 240.402 137.509 241.114C136.372 241.826 135.467 242.875 134.793 244.261C134.126 245.648 133.793 247.348 133.793 249.364C133.793 251.379 134.126 253.08 134.793 254.466C135.467 255.852 136.372 256.902 137.509 257.614C138.652 258.326 139.929 258.682 141.338 258.682C142.111 258.682 142.853 258.576 143.565 258.364C144.277 258.152 144.925 257.837 145.509 257.42C146.099 256.996 146.599 256.477 147.009 255.864C147.425 255.242 147.717 254.53 147.884 253.727H150.702C150.49 254.917 150.103 255.981 149.543 256.92C148.982 257.86 148.285 258.659 147.452 259.318C146.618 259.97 145.683 260.466 144.645 260.807C143.615 261.148 142.512 261.318 141.338 261.318C139.353 261.318 137.588 260.833 136.043 259.864C134.497 258.894 133.281 257.515 132.395 255.727C131.509 253.939 131.065 251.818 131.065 249.364C131.065 246.909 131.509 244.788 132.395 243C133.281 241.212 134.497 239.833 136.043 238.864C137.588 237.894 139.353 237.409 141.338 237.409C142.512 237.409 143.615 237.58 144.645 237.92C145.683 238.261 146.618 238.761 147.452 239.42C148.285 240.072 148.982 240.867 149.543 241.807C150.103 242.739 150.49 243.803 150.702 245ZM161.983 261.364C160.407 261.364 159.025 260.989 157.835 260.239C156.653 259.489 155.729 258.439 155.062 257.091C154.403 255.742 154.074 254.167 154.074 252.364C154.074 250.545 154.403 248.958 155.062 247.602C155.729 246.246 156.653 245.193 157.835 244.443C159.025 243.693 160.407 243.318 161.983 243.318C163.559 243.318 164.938 243.693 166.119 244.443C167.309 245.193 168.233 246.246 168.892 247.602C169.559 248.958 169.892 250.545 169.892 252.364C169.892 254.167 169.559 255.742 168.892 257.091C168.233 258.439 167.309 259.489 166.119 260.239C164.938 260.989 163.559 261.364 161.983 261.364ZM161.983 258.955C163.18 258.955 164.165 258.648 164.938 258.034C165.71 257.42 166.282 256.614 166.653 255.614C167.025 254.614 167.21 253.53 167.21 252.364C167.21 251.197 167.025 250.11 166.653 249.102C166.282 248.095 165.71 247.28 164.938 246.659C164.165 246.038 163.18 245.727 161.983 245.727C160.786 245.727 159.801 246.038 159.028 246.659C158.256 247.28 157.684 248.095 157.312 249.102C156.941 250.11 156.756 251.197 156.756 252.364C156.756 253.53 156.941 254.614 157.312 255.614C157.684 256.614 158.256 257.42 159.028 258.034C159.801 258.648 160.786 258.955 161.983 258.955ZM176.668 250.5V261H173.986V243.545H176.577V246.273H176.804C177.213 245.386 177.834 244.674 178.668 244.136C179.501 243.591 180.577 243.318 181.895 243.318C183.077 243.318 184.111 243.561 184.997 244.045C185.884 244.523 186.573 245.25 187.065 246.227C187.558 247.197 187.804 248.424 187.804 249.909V261H185.122V250.091C185.122 248.72 184.766 247.652 184.054 246.886C183.342 246.114 182.365 245.727 181.122 245.727C180.266 245.727 179.501 245.913 178.827 246.284C178.16 246.655 177.634 247.197 177.247 247.909C176.861 248.621 176.668 249.485 176.668 250.5ZM195.386 250.5V261H192.705V243.545H195.295V246.273H195.523C195.932 245.386 196.553 244.674 197.386 244.136C198.22 243.591 199.295 243.318 200.614 243.318C201.795 243.318 202.83 243.561 203.716 244.045C204.602 244.523 205.292 245.25 205.784 246.227C206.277 247.197 206.523 248.424 206.523 249.909V261H203.841V250.091C203.841 248.72 203.485 247.652 202.773 246.886C202.061 246.114 201.083 245.727 199.841 245.727C198.985 245.727 198.22 245.913 197.545 246.284C196.879 246.655 196.352 247.197 195.966 247.909C195.58 248.621 195.386 249.485 195.386 250.5ZM218.741 261.364C217.06 261.364 215.609 260.992 214.389 260.25C213.177 259.5 212.241 258.455 211.582 257.114C210.931 255.765 210.605 254.197 210.605 252.409C210.605 250.621 210.931 249.045 211.582 247.682C212.241 246.311 213.158 245.242 214.332 244.477C215.514 243.705 216.893 243.318 218.469 243.318C219.378 243.318 220.276 243.47 221.162 243.773C222.048 244.076 222.855 244.568 223.582 245.25C224.31 245.924 224.889 246.818 225.321 247.932C225.753 249.045 225.969 250.417 225.969 252.045V253.182H212.514V250.864H223.241C223.241 249.879 223.045 249 222.651 248.227C222.264 247.455 221.711 246.845 220.991 246.398C220.279 245.951 219.438 245.727 218.469 245.727C217.401 245.727 216.476 245.992 215.696 246.523C214.923 247.045 214.329 247.727 213.912 248.568C213.495 249.409 213.287 250.311 213.287 251.273V252.818C213.287 254.136 213.514 255.254 213.969 256.17C214.431 257.08 215.071 257.773 215.889 258.25C216.707 258.72 217.658 258.955 218.741 258.955C219.446 258.955 220.082 258.856 220.651 258.659C221.226 258.455 221.723 258.152 222.139 257.75C222.556 257.341 222.878 256.833 223.105 256.227L225.696 256.955C225.423 257.833 224.965 258.606 224.321 259.273C223.677 259.932 222.882 260.447 221.935 260.818C220.988 261.182 219.923 261.364 218.741 261.364ZM237.139 261.364C235.503 261.364 234.094 260.977 232.912 260.205C231.73 259.432 230.821 258.367 230.185 257.011C229.548 255.655 229.23 254.106 229.23 252.364C229.23 250.591 229.556 249.027 230.207 247.67C230.866 246.307 231.783 245.242 232.957 244.477C234.139 243.705 235.518 243.318 237.094 243.318C238.321 243.318 239.427 243.545 240.412 244C241.397 244.455 242.204 245.091 242.832 245.909C243.461 246.727 243.851 247.682 244.003 248.773H241.321C241.116 247.977 240.662 247.273 239.957 246.659C239.26 246.038 238.321 245.727 237.139 245.727C236.094 245.727 235.177 246 234.389 246.545C233.609 247.083 232.999 247.845 232.56 248.83C232.128 249.807 231.912 250.955 231.912 252.273C231.912 253.621 232.124 254.795 232.548 255.795C232.98 256.795 233.586 257.572 234.366 258.125C235.154 258.678 236.079 258.955 237.139 258.955C237.836 258.955 238.469 258.833 239.037 258.591C239.605 258.348 240.086 258 240.48 257.545C240.874 257.091 241.154 256.545 241.321 255.909H244.003C243.851 256.939 243.476 257.867 242.878 258.693C242.287 259.511 241.503 260.163 240.526 260.648C239.556 261.125 238.427 261.364 237.139 261.364ZM255.514 243.545V245.818H246.469V243.545H255.514ZM249.105 239.364H251.787V256C251.787 256.758 251.897 257.326 252.116 257.705C252.344 258.076 252.632 258.326 252.98 258.455C253.336 258.576 253.711 258.636 254.105 258.636C254.401 258.636 254.643 258.621 254.832 258.591C255.022 258.553 255.173 258.523 255.287 258.5L255.832 260.909C255.651 260.977 255.397 261.045 255.071 261.114C254.745 261.189 254.332 261.227 253.832 261.227C253.075 261.227 252.332 261.064 251.605 260.739C250.885 260.413 250.287 259.917 249.81 259.25C249.34 258.583 249.105 257.742 249.105 256.727V239.364ZM259.548 261V243.545H262.23V261H259.548ZM260.912 240.636C260.389 240.636 259.938 240.458 259.56 240.102C259.188 239.746 259.003 239.318 259.003 238.818C259.003 238.318 259.188 237.89 259.56 237.534C259.938 237.178 260.389 237 260.912 237C261.435 237 261.882 237.178 262.253 237.534C262.632 237.89 262.821 238.318 262.821 238.818C262.821 239.318 262.632 239.746 262.253 240.102C261.882 240.458 261.435 240.636 260.912 240.636ZM274.233 261.364C272.657 261.364 271.275 260.989 270.085 260.239C268.903 259.489 267.979 258.439 267.312 257.091C266.653 255.742 266.324 254.167 266.324 252.364C266.324 250.545 266.653 248.958 267.312 247.602C267.979 246.246 268.903 245.193 270.085 244.443C271.275 243.693 272.657 243.318 274.233 243.318C275.809 243.318 277.188 243.693 278.369 244.443C279.559 245.193 280.483 246.246 281.142 247.602C281.809 248.958 282.142 250.545 282.142 252.364C282.142 254.167 281.809 255.742 281.142 257.091C280.483 258.439 279.559 259.489 278.369 260.239C277.188 260.989 275.809 261.364 274.233 261.364ZM274.233 258.955C275.43 258.955 276.415 258.648 277.188 258.034C277.96 257.42 278.532 256.614 278.903 255.614C279.275 254.614 279.46 253.53 279.46 252.364C279.46 251.197 279.275 250.11 278.903 249.102C278.532 248.095 277.96 247.28 277.188 246.659C276.415 246.038 275.43 245.727 274.233 245.727C273.036 245.727 272.051 246.038 271.278 246.659C270.506 247.28 269.934 248.095 269.562 249.102C269.191 250.11 269.006 251.197 269.006 252.364C269.006 253.53 269.191 254.614 269.562 255.614C269.934 256.614 270.506 257.42 271.278 258.034C272.051 258.648 273.036 258.955 274.233 258.955ZM288.918 250.5V261H286.236V243.545H288.827V246.273H289.054C289.463 245.386 290.084 244.674 290.918 244.136C291.751 243.591 292.827 243.318 294.145 243.318C295.327 243.318 296.361 243.561 297.247 244.045C298.134 244.523 298.823 245.25 299.315 246.227C299.808 247.197 300.054 248.424 300.054 249.909V261H297.372V250.091C297.372 248.72 297.016 247.652 296.304 246.886C295.592 246.114 294.615 245.727 293.372 245.727C292.516 245.727 291.751 245.913 291.077 246.284C290.41 246.655 289.884 247.197 289.497 247.909C289.111 248.621 288.918 249.485 288.918 250.5Z" fill="white"/>
<defs>
<clipPath id="clip0_4_13">
<rect width="169" height="196" fill="white" transform="translate(67)"/>
</clipPath>
</defs>
</svg>
