<svg width="16" height="8" viewBox="0 0 16 8" fill="none" xmlns="http://www.w3.org/2000/svg">
<path fill-rule="evenodd" clip-rule="evenodd" d="M0.82562 7.3093C1.38336 7.7203 2.09886 7.9258 2.97215 7.9258C4.02895 7.9258 4.87295 7.6799 5.50405 7.1882C6.13515 6.6892 6.57915 5.937 6.83605 4.9315C6.99015 4.3151 7.12225 3.6803 7.23235 3.0272C7.26905 2.7923 7.28745 2.5978 7.28745 2.4437C7.28745 1.93 7.15895 1.4897 6.90205 1.1228C6.64525 0.7485 6.29295 0.469599 5.84535 0.286099C5.39765 0.0953994 4.89125 0 4.32625 0C2.24935 0 0.96137 1.009 0.46236 3.0272C0.28624 3.7684 0.15048 4.4032 0.0550303 4.9315C0.0183703 5.1664 0 5.3646 0 5.526C0 6.2966 0.27521 6.891 0.82562 7.3093ZM4.17205 5.9773C3.88585 6.2195 3.53735 6.3406 3.12625 6.3406C2.42185 6.3406 2.06953 6.003 2.06953 5.3278C2.06953 5.1664 2.08419 5.0123 2.11359 4.8655C2.24565 4.1537 2.37775 3.5519 2.50985 3.0602C2.63465 2.5612 2.84015 2.1906 3.12625 1.9483C3.41985 1.7062 3.77205 1.5851 4.18315 1.5851C4.88025 1.5851 5.22885 1.919 5.22885 2.5868C5.22885 2.7483 5.21415 2.9061 5.18485 3.0602C5.09675 3.5739 4.96835 4.1757 4.79955 4.8655C4.67475 5.3646 4.46565 5.7352 4.17205 5.9773ZM7.60675 7.7383C7.65075 7.7897 7.71315 7.8154 7.79395 7.8154H9.29105C9.36435 7.8154 9.43415 7.7897 9.50015 7.7383C9.56615 7.6869 9.60655 7.6209 9.62125 7.5402L10.1277 5.1294H11.6138C12.5751 5.1294 13.331 4.9276 13.8815 4.524C14.4392 4.1204 14.8098 3.4966 14.9932 2.6526C15.0373 2.4545 15.0592 2.2636 15.0592 2.0802C15.0592 1.4417 14.8097 0.953699 14.3106 0.616099C13.8189 0.278499 13.1659 0.109699 12.3513 0.109699H9.42305C9.34975 0.109699 9.28005 0.1354 9.21395 0.1868C9.14785 0.2382 9.10755 0.304199 9.09285 0.384899L7.57375 7.5402C7.55905 7.6136 7.57005 7.6796 7.60675 7.7383ZM12.4944 3.3571C12.2669 3.5259 11.999 3.6103 11.6908 3.6103H10.4249L10.8432 1.6399H12.1642C12.4651 1.6399 12.6779 1.6985 12.8026 1.816C12.9274 1.9261 12.9897 2.0875 12.9897 2.3003C12.9897 2.3957 12.9788 2.5058 12.9568 2.6306C12.8834 2.9462 12.7292 3.1883 12.4944 3.3571Z" fill="white"/>
</svg>
