<svg width="40" height="34" viewBox="0 0 40 34" fill="none" xmlns="http://www.w3.org/2000/svg">
<path fill-rule="evenodd" clip-rule="evenodd" d="M10.0287 0.2517C10.6328 -0.0839 11.3672 -0.0839 11.9713 0.2517L20.9713 5.2517C21.6062 5.6044 22 6.2737 22 7V10.2517L18 12.5V8.1768L11 4.2879L4 8.1768V15.8232L11 19.7121L28.0287 10.2517C28.6328 9.9161 29.3672 9.9161 29.9713 10.2517L38.9713 15.2517C39.6062 15.6044 40 16.2737 40 17V27C40 27.7263 39.6062 28.3956 38.9713 28.7483L29.9713 33.7483C29.3672 34.0839 28.6328 34.0839 28.0287 33.7483L19.0287 28.7483C18.3938 28.3956 18 27.7263 18 27V23.7483L22 21.5V25.8232L29 29.7121L36 25.8232V18.1768L29 14.2879L11.9713 23.7483C11.3672 24.0839 10.6328 24.0839 10.0287 23.7483L1.0287 18.7483C0.3938 18.3956 0 17.7263 0 17V7C0 6.2737 0.3938 5.6044 1.0287 5.2517L10.0287 0.2517Z" fill="white"/>
</svg>
